<svg width="19" height="18" viewBox="0 0 19 18" fill="none" xmlns="http://www.w3.org/2000/svg">
<path fill-rule="evenodd" clip-rule="evenodd" d="M9.40519 8.86081L8.236 15.831C8.57841 16.3447 9.04235 16.7659 9.58662 17.0572C10.1309 17.3485 10.7387 17.5 11.356 17.5H11.57C11.8241 17.5 12.0751 17.4446 12.3056 17.3377C12.5361 17.2309 12.7406 17.0752 12.9049 16.8813C13.0691 16.6875 13.1892 16.4602 13.2567 16.2153C13.3243 15.9703 13.3377 15.7126 13.296 15.462L12.6355 11.5H15.31C15.7168 11.5 16.1185 11.4098 16.4862 11.2359C16.8539 11.0619 17.1784 10.8085 17.4364 10.494C17.6943 10.1795 17.8793 9.81173 17.978 9.41711C18.0767 9.0225 18.0866 8.60991 18.007 8.211L18.0059 8.21043L18.007 8.21L17.065 3.5C17.0649 3.49934 17.0647 3.49868 17.0646 3.49802C17.0498 3.42362 17.037 3.3286 17.0222 3.21933C16.9845 2.94037 16.9343 2.56855 16.807 2.21C16.5647 1.52765 16.1372 0.8564 15.8535 0.623919C15.3618 0.220999 14.7457 -0.000123978 14.11 0H3.45508V2.04301V6.58923V10.4268V10.4524V11.5H4.68L5.54811 10.1302L4.68 11.501C4.88581 11.5011 5.08842 11.5519 5.26985 11.6491C5.45127 11.7463 5.6059 11.8857 5.72 12.057L8.235 15.83L9.40519 8.86081ZM2.23015 10.9506V11.5H0.75C0.551088 11.5 0.360322 11.421 0.21967 11.2803C0.0790175 11.1397 0 10.9489 0 10.75V2.75C0 2.02065 0.289731 1.32118 0.805456 0.805456C1.19692 0.413994 1.69425 0.15274 2.23015 0.0495701V5.22812V10.9128V10.9506ZM6 9.41711L6.10046 9.4007C6.07217 9.41146 6.03883 9.41711 6 9.41711Z" fill="black"/>
</svg>
