<svg xmlns="http://www.w3.org/2000/svg" width="19" height="18" viewBox="0 0 19 18" fill="none">
<path d="M12.1621 11.251L11.4221 11.374C11.4042 11.2665 11.41 11.1565 11.439 11.0515C11.4679 10.9465 11.5194 10.8491 11.5898 10.766C11.6603 10.6829 11.7479 10.6162 11.8468 10.5704C11.9456 10.5246 12.0532 10.5009 12.1621 10.501V11.251ZM1.16211 11.251V12.001C0.963197 12.001 0.772431 11.9219 0.631779 11.7813C0.491127 11.6406 0.412109 11.4499 0.412109 11.251H1.16211ZM3.16211 0.500954H14.5221V2.00095H3.16211V0.500954ZM15.7221 12.001H12.1621V10.501H15.7221V12.001ZM12.9021 11.128L13.7081 15.963L12.2281 16.21L11.4221 11.374L12.9021 11.128ZM11.9821 18.001H11.7681V16.501H11.9811L11.9821 18.001ZM8.64711 16.331L6.13211 12.558L7.38011 11.726L9.89511 15.499L8.64711 16.331ZM5.09211 12.001H1.16211V10.501H5.09211V12.001ZM0.412109 11.251V3.25095H1.91211V11.251H0.412109ZM17.2191 2.71095L18.4191 8.71095L16.9491 9.00595L15.7491 3.00595L17.2191 2.71095ZM6.13211 12.558C6.01801 12.3867 5.86338 12.2472 5.68196 12.15C5.50053 12.0529 5.29792 12.002 5.09211 12.002V10.502C6.01211 10.502 6.87011 10.961 7.38011 11.726L6.13211 12.558ZM13.7081 15.963C13.7498 16.2136 13.7364 16.4713 13.6688 16.7162C13.6013 16.9611 13.4812 17.1884 13.317 17.3823C13.1527 17.5761 12.9482 17.7319 12.7177 17.8387C12.4872 17.9455 12.2362 18.0009 11.9821 18.001L11.9811 16.501C12.0174 16.5009 12.0542 16.4929 12.087 16.4776C12.1199 16.4623 12.149 16.44 12.1724 16.4124C12.1958 16.3847 12.2129 16.3522 12.2225 16.3173C12.2322 16.2823 12.2341 16.2457 12.2281 16.21L13.7081 15.963ZM15.7221 10.502C16.5121 10.502 17.1021 9.77995 16.9481 9.00695L18.4191 8.71195C18.4987 9.11086 18.4888 9.52345 18.3901 9.91807C18.2914 10.3127 18.1064 10.6805 17.8485 10.995C17.5905 11.3095 17.266 11.5629 16.8983 11.7368C16.5306 11.9108 16.1289 12.001 15.7221 12.001V10.502ZM14.5221 0.500954C15.1578 0.50083 15.7739 0.721952 16.2656 1.12487C16.7574 1.52779 17.0943 2.08862 17.2191 2.71195L15.7491 3.00695C15.6924 2.72335 15.5392 2.46818 15.3154 2.28493C15.0917 2.10167 14.8113 2.00067 14.5221 2.00095V0.500954ZM11.7681 18.001C11.1508 18.0009 10.543 17.8495 9.99873 17.5581C9.45446 17.2668 8.99052 16.8456 8.64811 16.332L9.89511 15.499C10.1007 15.8073 10.3792 16.0611 10.7059 16.2359C11.0327 16.4107 11.3975 16.5011 11.7681 16.501V18.001ZM3.16211 2.00095C2.47211 2.00095 1.91211 2.56095 1.91211 3.25095H0.412109C0.412109 2.52161 0.701841 1.82213 1.21757 1.30641C1.73329 0.790686 2.43276 0.500954 3.16211 0.500954V2.00095Z" fill="black"/>
<path d="M5.16211 11.25V1.25V11.25Z" fill="black"/>
<path d="M5.16211 11.25V1.25" stroke="black" stroke-width="1.5"/>
</svg>