<svg xmlns="http://www.w3.org/2000/svg" width="24" height="17" viewBox="0 0 24 17" fill="none">
<path d="M23.3082 7.995C22.4261 5.71324 20.8947 3.73996 18.9033 2.31906C16.9119 0.898167 14.5478 0.0919297 12.1032 0C9.65858 0.0919297 7.29449 0.898167 5.3031 2.31906C3.31171 3.73996 1.78032 5.71324 0.898197 7.995C0.838622 8.15978 0.838622 8.34022 0.898197 8.505C1.78032 10.7868 3.31171 12.76 5.3031 14.1809C7.29449 15.6018 9.65858 16.4081 12.1032 16.5C14.5478 16.4081 16.9119 15.6018 18.9033 14.1809C20.8947 12.76 22.4261 10.7868 23.3082 8.505C23.3678 8.34022 23.3678 8.15978 23.3082 7.995ZM12.1032 15C8.1282 15 3.9282 12.0525 2.4057 8.25C3.9282 4.4475 8.1282 1.5 12.1032 1.5C16.0782 1.5 20.2782 4.4475 21.8007 8.25C20.2782 12.0525 16.0782 15 12.1032 15Z" fill="black"/>
<path d="M12.1032 3.75C11.2132 3.75 10.3432 4.01392 9.60313 4.50839C8.86311 5.00285 8.28633 5.70566 7.94574 6.52792C7.60514 7.35019 7.51603 8.25499 7.68966 9.12791C7.8633 10.0008 8.29188 10.8026 8.92122 11.432C9.55055 12.0613 10.3524 12.4899 11.2253 12.6635C12.0982 12.8372 13.003 12.7481 13.8253 12.4075C14.6475 12.0669 15.3503 11.4901 15.8448 10.7501C16.3393 10.01 16.6032 9.14002 16.6032 8.25C16.6032 7.05653 16.1291 5.91193 15.2852 5.06802C14.4413 4.22411 13.2967 3.75 12.1032 3.75ZM12.1032 11.25C11.5099 11.25 10.9298 11.0741 10.4365 10.7444C9.94314 10.4148 9.55862 9.94623 9.33156 9.39805C9.1045 8.84987 9.04508 8.24667 9.16084 7.66473C9.2766 7.08279 9.56232 6.54824 9.98188 6.12868C10.4014 5.70912 10.936 5.4234 11.5179 5.30764C12.0999 5.19189 12.7031 5.2513 13.2512 5.47836C13.7994 5.70542 14.268 6.08994 14.5976 6.58329C14.9272 7.07664 15.1032 7.65666 15.1032 8.25C15.1032 9.04565 14.7871 9.80871 14.2245 10.3713C13.6619 10.9339 12.8988 11.25 12.1032 11.25Z" fill="black"/>
</svg>