<svg xmlns="http://www.w3.org/2000/svg" width="19" height="18" viewBox="0 0 19 18" fill="none">
<path d="M12.1035 7.251L11.3635 7.128C11.3457 7.23544 11.3514 7.34548 11.3804 7.45046C11.4093 7.55545 11.4608 7.65288 11.5312 7.73596C11.6017 7.81904 11.6893 7.88578 11.7882 7.93155C11.887 7.97732 11.9946 8.00102 12.1035 8.001V7.251ZM1.10352 7.251V6.501C0.904603 6.501 0.713838 6.58002 0.573185 6.72067C0.432533 6.86132 0.353516 7.05209 0.353516 7.251H1.10352ZM3.10352 18.001H14.4635V16.501H3.10352V18.001ZM15.6635 6.501H12.1035V8.001H15.6635V6.501ZM12.8435 7.374L13.6495 2.539L12.1695 2.292L11.3635 7.128L12.8435 7.374ZM11.9235 0.501H11.7095V2.001H11.9225L11.9235 0.501ZM8.58852 2.171L6.07352 5.944L7.32152 6.776L9.83652 3.003L8.58852 2.171ZM5.03352 6.501H1.10352V8.001H5.03352V6.501ZM0.353516 7.251V15.251H1.85352V7.251H0.353516ZM17.1605 15.791L18.3605 9.791L16.8905 9.496L15.6905 15.496L17.1605 15.791ZM6.07352 5.944C5.95942 6.11528 5.80479 6.25475 5.62336 6.35191C5.44194 6.44908 5.23932 6.49995 5.03352 6.5V8C5.95352 8 6.81152 7.541 7.32152 6.776L6.07352 5.944ZM13.6495 2.539C13.6912 2.28837 13.6778 2.03067 13.6102 1.78574C13.5427 1.54082 13.4226 1.31353 13.2584 1.11969C13.0941 0.925848 12.8896 0.770094 12.6591 0.663253C12.4286 0.556411 12.1776 0.501044 11.9235 0.501L11.9225 2.001C11.9588 2.00109 11.9956 2.00906 12.0284 2.02436C12.0613 2.03966 12.0904 2.06192 12.1138 2.0896C12.1372 2.11728 12.1543 2.14972 12.1639 2.18467C12.1736 2.21962 12.1755 2.25624 12.1695 2.292L13.6495 2.539ZM15.6635 8C16.4535 8 17.0435 8.722 16.8895 9.495L18.3605 9.79C18.4401 9.39109 18.4302 8.9785 18.3315 8.58389C18.2328 8.18927 18.0478 7.82146 17.7899 7.50696C17.5319 7.19246 17.2074 6.9391 16.8397 6.76515C16.472 6.5912 16.0703 6.50098 15.6635 6.501V8ZM14.4635 18.001C15.0992 18.0011 15.7153 17.78 16.207 17.3771C16.6988 16.9742 17.0357 16.4133 17.1605 15.79L15.6905 15.495C15.6338 15.7786 15.4806 16.0338 15.2568 16.217C15.0331 16.4003 14.7527 16.5013 14.4635 16.501V18.001ZM11.7095 0.501C11.0922 0.501045 10.4844 0.652495 9.94013 0.94382C9.39586 1.23514 8.93193 1.65633 8.58952 2.17L9.83652 3.003C10.0421 2.69466 10.3206 2.44086 10.6473 2.26606C10.9741 2.09125 11.3389 2.00086 11.7095 2.001V0.501ZM3.10352 16.501C2.41352 16.501 1.85352 15.941 1.85352 15.251H0.353516C0.353516 15.9803 0.643247 16.6798 1.15897 17.1955C1.6747 17.7113 2.37417 18.001 3.10352 18.001V16.501Z" fill="black"/>
<path d="M5.10352 7.25195V17.252V7.25195Z" fill="black"/>
<path d="M5.10352 7.25195V17.252" stroke="black" stroke-width="1.5"/>
</svg>