<svg width="19" height="18" viewBox="0 0 19 18" fill="none" xmlns="http://www.w3.org/2000/svg">
<path fill-rule="evenodd" clip-rule="evenodd" d="M9.40519 8.63919L8.236 1.669C8.57841 1.15533 9.04235 0.734145 9.58662 0.44282C10.1309 0.151495 10.7387 4.48482e-05 11.356 0H11.57C11.8241 4.43664e-05 12.0751 0.0554112 12.3056 0.162253C12.5361 0.269094 12.7406 0.424848 12.9049 0.61869C13.0691 0.812533 13.1892 1.03982 13.2567 1.28474C13.3243 1.52967 13.3377 1.78737 13.296 2.038L12.6355 6H15.31C15.7168 5.99998 16.1185 6.0902 16.4862 6.26415C16.8539 6.4381 17.1784 6.69146 17.4364 7.00596C17.6943 7.32046 17.8793 7.68827 17.978 8.08289C18.0767 8.4775 18.0866 8.89009 18.007 9.289L18.0059 9.28957L18.007 9.29L17.065 14C17.0649 14.0007 17.0647 14.0013 17.0646 14.002C17.0498 14.0764 17.037 14.1714 17.0222 14.2807C16.9845 14.5596 16.9343 14.9314 16.807 15.29C16.5647 15.9724 16.1372 16.6436 15.8535 16.8761C15.3618 17.279 14.7457 17.5001 14.11 17.5H3.45508V15.457V10.9108V7.07321V7.04764V6H4.68L5.54811 7.36983L4.68 5.999C4.88581 5.99895 5.08842 5.94808 5.26985 5.85091C5.45127 5.75375 5.6059 5.61428 5.72 5.443L8.235 1.67L9.40519 8.63919ZM2.23015 6.54935V6H0.75C0.551088 6 0.360322 6.07902 0.21967 6.21967C0.0790175 6.36032 0 6.55109 0 6.75V14.75C0 15.4793 0.289731 16.1788 0.805456 16.6945C1.19692 17.086 1.69425 17.3473 2.23015 17.4504V12.2719V6.58724V6.54935ZM6 8.08289L6.10046 8.0993C6.07217 8.08854 6.03883 8.08289 6 8.08289Z" fill="#ABA8A8"/>
</svg>
