<svg xmlns="http://www.w3.org/2000/svg" width="15" height="17" viewBox="0 0 15 17" fill="none">
<path d="M3.88889 7.8V5C3.88889 4.07174 4.26934 3.1815 4.94656 2.52513C5.62377 1.86875 6.54227 1.5 7.5 1.5C8.45773 1.5 9.37623 1.86875 10.0534 2.52513C10.7307 3.1815 11.1111 4.07174 11.1111 5V7.8M2.44444 7.8H12.5556C13.3533 7.8 14 8.4268 14 9.2V14.1C14 14.8732 13.3533 15.5 12.5556 15.5H2.44444C1.6467 15.5 1 14.8732 1 14.1V9.2C1 8.4268 1.6467 7.8 2.44444 7.8Z" stroke="#606060" stroke-linecap="round" stroke-linejoin="round"/>
</svg>