<svg xmlns="http://www.w3.org/2000/svg" width="15" height="16" viewBox="0 0 15 16" fill="none">
<path d="M3.88889 7.3V4.5C3.88889 3.57174 4.26934 2.6815 4.94656 2.02513C5.62377 1.36875 6.54227 1 7.5 1C8.45773 1 9.37623 1.36875 10.0534 2.02513C10.7307 2.6815 11.1111 3.57174 11.1111 4.5V7.3M2.44444 7.3H12.5556C13.3533 7.3 14 7.9268 14 8.7V13.6C14 14.3732 13.3533 15 12.5556 15H2.44444C1.6467 15 1 14.3732 1 13.6V8.7C1 7.9268 1.6467 7.3 2.44444 7.3Z" stroke="white" stroke-linecap="round" stroke-linejoin="round"/>
</svg>