<svg xmlns="http://www.w3.org/2000/svg" width="18" height="18" viewBox="0 0 18 18" fill="none">
<path d="M8.85351 17.25C10.4358 17.25 11.9825 16.7808 13.2981 15.9018C14.6137 15.0227 15.639 13.7733 16.2445 12.3115C16.85 10.8497 17.0085 9.24113 16.6998 7.68928C16.3911 6.13743 15.6292 4.71197 14.5104 3.59315C13.3915 2.47433 11.9661 1.7124 10.4142 1.40372C8.86239 1.09504 7.25385 1.25347 5.79205 1.85897C4.33024 2.46447 3.08081 3.48985 2.20176 4.80544C1.32271 6.12103 0.853516 7.66775 0.853516 9.25C0.853516 10.5727 1.17352 11.8189 1.7424 12.9184L0.853516 17.25L5.18507 16.3611C6.28374 16.9291 7.53174 17.25 8.85351 17.25Z" stroke="black" stroke-width="1.5" stroke-linecap="round" stroke-linejoin="round"/>
</svg>