<svg xmlns="http://www.w3.org/2000/svg" width="28" height="28" viewBox="0 0 28 28" fill="none">
    <path d="M23.3333 8.78646C22.6528 9.09028 21.9175 9.29688 21.1276 9.40625C21.954 8.92014 22.5191 8.2092 22.8229 7.27344C22.033 7.73524 21.2188 8.04514 20.3802 8.20312C19.6389 7.40104 18.7092 7 17.5911 7C16.5339 7 15.6315 7.3737 14.8841 8.12109C14.1367 8.86849 13.763 9.77083 13.763 10.8281C13.763 11.1806 13.7934 11.4722 13.8542 11.7031C12.2865 11.6181 10.816 11.2231 9.44271 10.5182C8.06944 9.81337 6.90278 8.87153 5.94271 7.69271C5.59028 8.30035 5.41406 8.94444 5.41406 9.625C5.41406 11.0104 5.96701 12.0738 7.07292 12.8151C6.50174 12.803 5.8941 12.645 5.25 12.3411V12.3776C5.25 13.2891 5.55382 14.1003 6.16146 14.8112C6.7691 15.5221 7.51649 15.9627 8.40365 16.1328C8.05122 16.23 7.74132 16.2786 7.47396 16.2786C7.31597 16.2786 7.07899 16.2543 6.76302 16.2057C7.01823 16.9714 7.47092 17.6033 8.12109 18.1016C8.77127 18.5998 9.50955 18.855 10.3359 18.8672C8.92622 19.9609 7.34028 20.5078 5.57812 20.5078C5.26215 20.5078 4.95833 20.4896 4.66667 20.4531C6.46528 21.5955 8.42188 22.1667 10.5365 22.1667C11.8976 22.1667 13.1736 21.951 14.3646 21.5195C15.5556 21.0881 16.5764 20.5109 17.4271 19.7878C18.2778 19.0647 19.01 18.2322 19.6237 17.2904C20.2374 16.3485 20.6931 15.3641 20.9909 14.3372C21.2886 13.3103 21.4375 12.2865 21.4375 11.2656C21.4375 11.0469 21.4314 10.8828 21.4193 10.7734C22.1849 10.2266 22.8229 9.56424 23.3333 8.78646ZM28 5.25V22.75C28 24.1962 27.4865 25.4327 26.4596 26.4596C25.4327 27.4865 24.1962 28 22.75 28H5.25C3.80382 28 2.56727 27.4865 1.54036 26.4596C0.513455 25.4327 0 24.1962 0 22.75V5.25C0 3.80382 0.513455 2.56727 1.54036 1.54036C2.56727 0.513455 3.80382 0 5.25 0H22.75C24.1962 0 25.4327 0.513455 26.4596 1.54036C27.4865 2.56727 28 3.80382 28 5.25Z" fill="white"/>
</svg>