<svg xmlns="http://www.w3.org/2000/svg" width="28" height="28" viewBox="0 0 28 28" fill="none">
    <path d="M18.3022 0H9.7132C1.8648 0 0 1.8662 0 9.6978V18.2882C0 26.1338 1.8522 28 9.6978 28H18.2882C26.1338 28 28 26.1478 28 18.3022V9.7132C28 1.8648 26.1478 0 18.3022 0ZM22.6044 19.978H20.5618C19.789 19.978 19.5566 19.3522 18.1706 17.9662C16.961 16.8 16.45 16.6544 16.1434 16.6544C15.7206 16.6544 15.6044 16.7706 15.6044 17.3544V19.1912C15.6044 19.6882 15.4434 19.9794 14.1456 19.9794C12.8861 19.8948 11.6647 19.5121 10.582 18.8629C9.49938 18.2138 8.58644 17.3167 7.9184 16.2456C6.33244 14.2716 5.22892 11.9548 4.6956 9.4794C4.6956 9.1728 4.8118 8.8956 5.3956 8.8956H7.4382C7.9632 8.8956 8.1522 9.1294 8.3566 9.6684C9.3478 12.586 11.039 15.1228 11.725 15.1228C11.9882 15.1228 12.103 15.0066 12.103 14.35V11.3456C12.0162 9.975 11.2882 9.8588 11.2882 9.3632C11.2976 9.23248 11.3575 9.11054 11.4552 9.02325C11.553 8.93596 11.6809 8.89017 11.8118 8.8956H15.0206C15.4588 8.8956 15.6044 9.114 15.6044 9.639V13.6934C15.6044 14.1316 15.7934 14.2772 15.925 14.2772C16.1882 14.2772 16.3912 14.1316 16.8728 13.65C17.9072 12.3885 18.7523 10.9831 19.3816 9.478C19.4459 9.29721 19.5676 9.14243 19.7281 9.03727C19.8887 8.93211 20.0792 8.88236 20.2706 8.8956H22.3132C22.925 8.8956 23.0552 9.2022 22.925 9.639C22.1823 11.3028 21.2633 12.8822 20.1838 14.35C19.964 14.686 19.8758 14.861 20.1838 15.2544C20.3868 15.561 21.1022 16.1588 21.5838 16.7272C22.2837 17.4253 22.8648 18.233 23.3044 19.1184C23.4794 19.6868 23.1868 19.978 22.6044 19.978Z" fill="white"/>
</svg>