<?xml version="1.0" encoding="utf-8"?><svg viewBox="0 0 44 44" xmlns="http://www.w3.org/2000/svg" xmlns:xlink="http://www.w3.org/1999/xlink"><style>:root>svg{display:none}:root>svg:target{display:block}</style><svg fill="none" viewBox="0 0 44 44" id="closer" xmlns="http://www.w3.org/2000/svg"><path d="M42 2 2 42M2 2l40 40" stroke="#fff" stroke-width="4" stroke-linecap="round" stroke-linejoin="round"/></svg><svg fill="none" viewBox="0 0 30 30" id="search_icon_white" xmlns="http://www.w3.org/2000/svg"><path d="m28 28-6.283-6.283m3.394-8.161c0 6.382-5.174 11.555-11.555 11.555C7.174 25.111 2 19.937 2 13.556 2 7.174 7.174 2 13.556 2 19.938 2 25.11 7.174 25.11 13.556Z" stroke="#fff" stroke-width="3" stroke-linecap="round" stroke-linejoin="round"/></svg><svg fill="none" viewBox="0 0 28 28" id="twitter_white" xmlns="http://www.w3.org/2000/svg"><path d="M23.333 8.786a8.11 8.11 0 0 1-2.205.62c.826-.486 1.391-1.197 1.695-2.133a7.612 7.612 0 0 1-2.443.93C19.64 7.401 18.71 7 17.591 7c-1.057 0-1.96.374-2.707 1.121a3.689 3.689 0 0 0-1.121 2.707c0 .353.03.644.091.875a10.836 10.836 0 0 1-4.411-1.185 10.851 10.851 0 0 1-3.5-2.825 3.792 3.792 0 0 0-.529 1.932c0 1.385.553 2.449 1.659 3.19-.571-.012-1.179-.17-1.823-.474v.037c0 .911.304 1.722.911 2.433.608.711 1.355 1.152 2.243 1.322a3.557 3.557 0 0 1-.93.146c-.158 0-.395-.025-.711-.073a3.892 3.892 0 0 0 1.358 1.896c.65.498 1.389.753 2.215.765-1.41 1.094-2.996 1.64-4.758 1.64a7.34 7.34 0 0 1-.911-.054 10.739 10.739 0 0 0 5.87 1.714c1.36 0 2.637-.216 3.828-.648 1.19-.43 2.211-1.008 3.062-1.731a11.498 11.498 0 0 0 2.197-2.498 11.01 11.01 0 0 0 1.814-6.024c0-.22-.007-.383-.019-.493a7.439 7.439 0 0 0 1.914-1.987ZM28 5.25v17.5c0 1.446-.514 2.683-1.54 3.71-1.027 1.026-2.264 1.54-3.71 1.54H5.25c-1.446 0-2.683-.514-3.71-1.54C.513 25.433 0 24.196 0 22.75V5.25c0-1.446.513-2.683 1.54-3.71C2.567.513 3.804 0 5.25 0h17.5c1.446 0 2.683.513 3.71 1.54C27.486 2.567 28 3.804 28 5.25Z" fill="#fff"/></svg><svg fill="none" viewBox="0 0 28 28" id="vk_white" xmlns="http://www.w3.org/2000/svg"><path d="M18.302 0H9.713C1.865 0 0 1.866 0 9.698v8.59C0 26.134 1.852 28 9.698 28h8.59C26.134 28 28 26.148 28 18.302V9.713C28 1.865 26.148 0 18.302 0Zm4.302 19.978h-2.042c-.773 0-1.005-.626-2.391-2.012-1.21-1.166-1.721-1.312-2.028-1.312-.422 0-.539.117-.539.7v1.837c0 .497-.16.788-1.458.788a7.968 7.968 0 0 1-6.228-3.733 16.276 16.276 0 0 1-3.222-6.767c0-.306.116-.583.7-.583h2.042c.525 0 .714.233.919.772.99 2.918 2.682 5.455 3.368 5.455.263 0 .378-.116.378-.773v-3.004c-.087-1.371-.815-1.487-.815-1.983a.504.504 0 0 1 .524-.467h3.209c.438 0 .583.218.583.743v4.054c0 .439.19.584.321.584.263 0 .466-.145.948-.627a16.8 16.8 0 0 0 2.509-4.172.88.88 0 0 1 .889-.582h2.042c.612 0 .742.306.612.743a25.485 25.485 0 0 1-2.741 4.711c-.22.336-.308.511 0 .904.203.307.918.905 1.4 1.473a9.08 9.08 0 0 1 1.72 2.391c.175.569-.117.86-.7.86Z" fill="#fff"/></svg></svg>