<?xml version="1.0" encoding="UTF-8" standalone="no"?>
<!DOCTYPE svg PUBLIC "-//W3C//DTD SVG 1.1//EN" "http://www.w3.org/Graphics/SVG/1.1/DTD/svg11.dtd">
<svg width="100%" height="100%" viewBox="0 0 120 120" version="1.1" xmlns="http://www.w3.org/2000/svg" xmlns:xlink="http://www.w3.org/1999/xlink" xml:space="preserve" xmlns:serif="http://www.serif.com/" style="fill-rule:evenodd;clip-rule:evenodd;stroke-linecap:round;stroke-linejoin:round;stroke-miterlimit:1;">
    <rect id="Notification_1" x="0" y="0" width="120" height="120" style="fill:none;"/>
    <clipPath id="_clip1">
        <rect x="0" y="0" width="120" height="120"/>
    </clipPath>
    <g clip-path="url(#_clip1)">
        <g>
            <rect x="0" y="0" width="120" height="120" style="fill:none;"/>
            <path d="M4,117C4,117 13.557,101.709 37.057,96.738C50,94 63.797,85 65.316,79.347" stroke-dasharray="6.4 6.4 0 0" style="fill:none;stroke:rgb(222,223,254);stroke-width:1.6px;">
                <animate attributeName="stroke-dashoffset" dur="400s" values="-23314;0" repeatCount="indefinite" />  
            </path>
            <path d="M12.879,12.353C12.842,12.195 12.9,12.032 13.028,11.938C13.155,11.844 13.328,11.836 13.468,11.917L16.098,13.458C16.164,13.496 16.235,13.522 16.309,13.534C16.383,13.546 16.458,13.544 16.531,13.528L19.462,12.889C19.618,12.856 19.781,12.918 19.877,13.049C19.974,13.179 19.986,13.354 19.908,13.493L18.438,16.107C18.401,16.172 18.378,16.244 18.367,16.318C18.357,16.392 18.361,16.468 18.378,16.542L19.08,19.509C19.117,19.666 19.059,19.829 18.931,19.923C18.804,20.018 18.631,20.026 18.491,19.944L15.861,18.403C15.795,18.365 15.724,18.339 15.65,18.327C15.576,18.315 15.501,18.317 15.428,18.333L12.497,18.972C12.341,19.006 12.178,18.943 12.082,18.812C11.985,18.682 11.973,18.508 12.051,18.369L13.521,15.754C13.558,15.689 13.581,15.618 13.592,15.543C13.602,15.469 13.598,15.393 13.581,15.32L12.879,12.353Z" style="fill:none;stroke:rgb(97,113,255);stroke-width:1.6px;stroke-miterlimit:1.5;transform-box: fill-box; transform-origin: 50% 50%;">
                <animateTransform
                    xmlns="http://www.w3.org/2000/svg"
                    attributeType="xml"
                    attributeName="transform"
                    type="rotate"
                    dur="5s"
                    begin="0"
                    values="0; 360;"
                    repeatCount="indefinite"/>
            </path>
            <path d="M2.75,84.11C2.743,83.967 2.819,83.835 2.945,83.773C3.07,83.711 3.221,83.732 3.33,83.825L5.371,85.578C5.421,85.622 5.479,85.655 5.542,85.677C5.604,85.699 5.67,85.71 5.735,85.707L8.381,85.616C8.521,85.611 8.653,85.691 8.716,85.819C8.779,85.948 8.762,86.101 8.672,86.209L6.983,88.247C6.942,88.298 6.909,88.356 6.889,88.419C6.868,88.482 6.859,88.548 6.863,88.615L7.004,91.302C7.011,91.445 6.935,91.577 6.809,91.638C6.684,91.7 6.532,91.68 6.424,91.587L4.383,89.834C4.333,89.79 4.275,89.756 4.212,89.734C4.15,89.712 4.084,89.702 4.019,89.704L1.373,89.796C1.233,89.801 1.101,89.721 1.038,89.592C0.975,89.463 0.992,89.31 1.081,89.202L2.77,87.164C2.812,87.114 2.844,87.055 2.865,86.993C2.886,86.93 2.894,86.863 2.891,86.797L2.75,84.11Z" style="fill:none;stroke:rgb(97,113,255);stroke-width:1.6px;stroke-miterlimit:1.5;transform-box: fill-box; transform-origin: 50% 50%;">
                <animateTransform
                    xmlns="http://www.w3.org/2000/svg"
                    attributeType="xml"
                    attributeName="transform"
                    type="rotate"
                    dur="3s"
                    begin="0"
                    values="0; -360;"
                    repeatCount="indefinite"/>
            </path>
            <path d="M116.254,66.183C116.382,66.085 116.554,66.072 116.691,66.15C116.829,66.228 116.906,66.382 116.888,66.542L116.553,69.56C116.545,69.635 116.55,69.71 116.57,69.782C116.589,69.855 116.621,69.922 116.665,69.982L118.434,72.389C118.528,72.517 118.537,72.69 118.458,72.831C118.378,72.972 118.224,73.054 118.066,73.039L115.092,72.762C115.018,72.755 114.943,72.762 114.872,72.783C114.8,72.804 114.732,72.838 114.673,72.884L112.258,74.725C112.13,74.823 111.958,74.836 111.821,74.758C111.683,74.68 111.606,74.527 111.623,74.366L111.958,71.348C111.967,71.273 111.961,71.198 111.942,71.126C111.923,71.054 111.891,70.986 111.847,70.926L110.077,68.519C109.983,68.391 109.974,68.218 110.054,68.077C110.134,67.936 110.287,67.854 110.445,67.869L113.42,68.146C113.494,68.153 113.568,68.146 113.64,68.125C113.712,68.104 113.779,68.07 113.839,68.024L116.254,66.183Z" style="fill:none;stroke:rgb(97,113,255);stroke-width:1.6px;stroke-miterlimit:1.5;transform-box: fill-box; transform-origin: 50% 50%;">
                <animateTransform
                    xmlns="http://www.w3.org/2000/svg"
                    attributeType="xml"
                    attributeName="transform"
                    type="rotate"
                    dur="8s"
                    begin="0"
                    values="0; 360;"
                    repeatCount="indefinite"/>
            </path>
            <path d="M111.144,4.967C111.222,4.901 111.33,4.887 111.419,4.932C111.509,4.976 111.563,5.071 111.557,5.173L111.446,7.093C111.443,7.14 111.449,7.188 111.464,7.233C111.478,7.278 111.501,7.319 111.531,7.356L112.73,8.819C112.793,8.897 112.805,9.006 112.759,9.098C112.714,9.19 112.619,9.246 112.519,9.242L110.629,9.166C110.582,9.164 110.535,9.171 110.49,9.187C110.445,9.202 110.404,9.226 110.368,9.257L108.902,10.502C108.824,10.568 108.716,10.582 108.627,10.537C108.537,10.493 108.483,10.398 108.489,10.296L108.6,8.377C108.603,8.329 108.597,8.281 108.582,8.236C108.568,8.191 108.545,8.15 108.516,8.113L107.316,6.65C107.253,6.573 107.241,6.463 107.287,6.371C107.333,6.28 107.427,6.223 107.527,6.227L109.417,6.303C109.464,6.305 109.511,6.298 109.556,6.282C109.601,6.267 109.642,6.243 109.678,6.212L111.144,4.967Z" style="fill:none;stroke:rgb(97,113,255);stroke-width:1.6px;stroke-miterlimit:1.5;transform-box: fill-box; transform-origin: 50% 50%;">
                <animateTransform
                    xmlns="http://www.w3.org/2000/svg"
                    attributeType="xml"
                    attributeName="transform"
                    type="rotate"
                    dur="6s"
                    begin="0"
                    values="0; -360;"
                    repeatCount="indefinite"/>
            </path>
            <circle cx="59.899" cy="22.899" r="2.899" style="fill:none;stroke:rgb(97,113,255);stroke-width:1.6px;transform-box: fill-box; transform-origin: 50% 50%;">
                <animate
                    xmlns="http://www.w3.org/2000/svg"
                    attributeName="r"
                    dur="6s"
                    begin="0"
                    values="2.899; 5.899; 2.899;"
                    repeatCount="indefinite"/>
            </circle>
            <circle cx="84.928" cy="104.928" r="1.928" style="fill:none;stroke:rgb(97,113,255);stroke-width:1.6px;transform-box: fill-box; transform-origin: 50% 50%;">
                <animate
                    xmlns="http://www.w3.org/2000/svg"
                    attributeName="r"
                    dur="6s"
                    begin="0"
                    values="3.899; 2.899; 3.899;"
                    repeatCount="indefinite"/>
            </circle>
            <g style="transform-box: fill-box; transform-origin: 50% 50%;">
                <path d="M104,20L54.988,54.902L67.659,74.809L65.316,59.441L104,20Z" style="fill:rgb(222,223,254);stroke:rgb(97,113,255);stroke-width:1.6px;stroke-miterlimit:1.5;"/>
                <path d="M65.316,59.441L104,20L89.081,64.697L65.316,59.441Z" style="fill:none;stroke:rgb(97,113,255);stroke-width:1.6px;stroke-miterlimit:1.5;"/>
                <path d="M67.659,74.809L76.246,61.858L65.316,59.441L67.659,74.809Z" style="fill:none;stroke:rgb(97,113,255);stroke-width:1.6px;stroke-miterlimit:1.5;"/>
                <path d="M104,20L37.057,51.599L54.988,54.902L104,20Z" style="fill:none;stroke:rgb(97,113,255);stroke-width:1.6px;stroke-miterlimit:1.5;"/>
                <animateTransform xmlns="http://www.w3.org/2000/svg" attributeType="xml" attributeName="transform" type="skewY" dur="10s" begin="0" values="0; 10; 0; -5;  0;" repeatCount="indefinite"/>
            </g>
        </g>
    </g>
</svg>
